<svg width="192" height="256" viewBox="0 0 192 256" fill="none" xmlns="http://www.w3.org/2000/svg">
<path d="M0 179.363C0.010093 187.557 1.42315 195.398 3.8152 202.798L34.4375 202.828V178.157L0.0101029 178.126V179.363H0Z" fill="#F17423"/>
<path d="M41.6036 247.425C47.7301 250.592 54.3712 252.844 61.3153 254.281V210.277H6.56049C13.666 226.272 26.0805 239.402 41.6036 247.425Z" fill="#F17423"/>
<path d="M61.2548 178.126V202.787L41.9165 202.828V178.167L61.2548 178.126Z" fill="#F17423"/>
<path d="M122.822 210.287H103.413V256H122.822V210.287Z" fill="#F17423"/>
<path d="M95.9041 210.287H68.8245V256H95.9041V210.287Z" fill="#F17423"/>
<path d="M88.405 0H68.9961V45.7128H88.405V0Z" fill="#F17423"/>
<path d="M122.994 0H95.9142V45.7128H122.994V0Z" fill="#F17423"/>
<path d="M0.0605469 76.4664V77.8337L34.4779 77.8638V53.1927L3.8354 53.1626C1.45344 60.5217 0.0908359 68.3332 0.0706498 76.4664H0.0605469Z" fill="#F17423"/>
<path d="M42.0174 53.2028V77.894L61.3557 77.8638V53.1626L42.0174 53.2028Z" fill="#F17423"/>
<path d="M61.3658 45.7029V1.66895C44.3792 5.17759 29.4313 14.1955 18.551 26.8427C13.7063 32.4726 9.72968 38.8364 6.68158 45.7029H61.3658Z" fill="#F17423"/>
<path d="M122.984 53.1826H68.8245V77.8738H122.984V53.1826Z" fill="#F17423"/>
<path d="M122.883 178.126H68.8346V202.818H122.883V178.126Z" fill="#F17423"/>
<path d="M192 179.282C191.99 187.476 190.577 195.318 188.185 202.717L157.562 202.747V178.076L191.99 178.046V179.282H192Z" fill="#F17423"/>
<path d="M150.386 247.344C144.26 250.511 137.619 252.763 130.675 254.201V210.197H185.429C178.324 226.192 165.91 239.322 150.386 247.344Z" fill="#F17423"/>
<path d="M130.735 178.046V202.717L150.084 202.747V178.086L130.735 178.046Z" fill="#F17423"/>
<path d="M191.929 76.3958V77.7631L157.512 77.7933V53.1222L188.155 53.092C190.537 60.4511 191.899 68.2626 191.919 76.3958H191.929Z" fill="#F17423"/>
<path d="M149.972 53.1222V77.8133L130.634 77.7832V53.092L149.972 53.1222Z" fill="#F17423"/>
<path d="M130.624 45.6226V1.58862C147.611 5.09726 162.559 14.1152 173.439 26.7624C178.284 32.3923 182.26 38.7561 185.308 45.6226H130.624Z" fill="#F17423"/>
<path d="M192 85.2429H165.031V124.25H192V85.2429Z" fill="#F17423"/>
<path d="M192 131.7H157.482V170.546H192V131.7Z" fill="#F17423"/>
<path d="M157.522 85.2429H130.564V124.25H157.522V85.2429Z" fill="#F17423"/>
<path d="M130.564 131.69V170.536L149.973 170.566V131.72L130.564 131.69Z" fill="#F17423"/>
<path d="M34.4779 131.69H0V170.616H34.4779V131.69Z" fill="#F17423"/>
<path d="M26.9687 85.3135H0V124.24H26.9687V85.3135Z" fill="#F17423"/>
<path d="M61.4263 85.3135H34.4678V124.24H61.4263V85.3135Z" fill="#F17423"/>
<path d="M61.4263 131.69H41.977V170.616H61.4263V131.69Z" fill="#F17423"/>
</svg>
